<svg width="28" height="28" viewBox="0 0 28 28" fill="none" xmlns="http://www.w3.org/2000/svg">
<path fill-rule="evenodd" clip-rule="evenodd" d="M13.9998 27.3334C21.3638 27.3334 27.3332 21.364 27.3332 14C27.3332 6.63602 21.3638 0.666687 13.9998 0.666687C6.63584 0.666687 0.666504 6.63602 0.666504 14C0.666504 21.364 6.63584 27.3334 13.9998 27.3334ZM10.9998 10C10.9998 9.7348 11.1052 9.48045 11.2927 9.29291C11.4803 9.10538 11.7346 9.00002 11.9998 9.00002H17.9998C18.2651 9.00002 18.5194 9.10538 18.7069 9.29291C18.8945 9.48045 18.9998 9.7348 18.9998 10V16C18.9998 16.2652 18.8945 16.5196 18.7069 16.7071C18.5194 16.8947 18.2651 17 17.9998 17C17.7346 17 17.4803 16.8947 17.2927 16.7071C17.1052 16.5196 16.9998 16.2652 16.9998 16V12.4134L10.7065 18.7067C10.5169 18.8833 10.2662 18.9795 10.0071 18.9749C9.74807 18.9704 9.50089 18.8654 9.31768 18.6822C9.13446 18.499 9.02951 18.2518 9.02494 17.9927C9.02037 17.7336 9.11653 17.4829 9.29317 17.2934L15.5865 11H11.9998C11.7346 11 11.4803 10.8947 11.2927 10.7071C11.1052 10.5196 10.9998 10.2652 10.9998 10Z" fill="#052500"/>
</svg>
