<svg width="167" height="17" viewBox="0 0 167 17" fill="none" xmlns="http://www.w3.org/2000/svg">
<path d="M0 8.40725C0 7.42268 0.183197 6.50591 0.549592 5.65695C0.915987 4.80208 1.44522 4.06218 2.1373 3.43725C2.8352 2.80642 3.6843 2.31119 4.68462 1.95156C5.69075 1.59193 6.82773 1.41211 8.09558 1.41211C9.20639 1.41211 10.2242 1.52707 11.1489 1.757C12.0794 1.98104 12.943 2.32593 13.7398 2.79168L12.4661 4.9141C12.2277 4.75492 11.9514 4.61342 11.6374 4.48962C11.3292 4.36581 10.9977 4.26263 10.6429 4.1801C10.2939 4.09166 9.93046 4.02386 9.55243 3.9767C9.18022 3.92953 8.81092 3.90595 8.44452 3.90595C7.56052 3.90595 6.77248 4.01797 6.08041 4.242C5.38833 4.46014 4.80384 4.76966 4.32695 5.17056C3.85587 5.56556 3.49529 6.04016 3.24521 6.59435C3.00095 7.14264 2.87881 7.74694 2.87881 8.40725C2.87881 9.09114 3.00676 9.71902 3.26266 10.2909C3.51855 10.8628 3.88785 11.358 4.37056 11.7766C4.85909 12.1893 5.4523 12.5135 6.1502 12.7494C6.85391 12.9793 7.64776 13.0943 8.53176 13.0943C8.93305 13.0943 9.33143 13.0648 9.7269 13.0058C10.1224 12.9469 10.5033 12.8673 10.8697 12.767C11.2419 12.6609 11.5996 12.5371 11.9427 12.3956C12.2859 12.2482 12.6057 12.0891 12.9023 11.9181L14.176 14.0405C13.4316 14.5239 12.5708 14.9042 11.5938 15.1813C10.6167 15.4525 9.5786 15.5881 8.47942 15.5881C7.07781 15.5881 5.84777 15.4053 4.7893 15.0398C3.73083 14.6684 2.84683 14.1614 2.1373 13.5187C1.42778 12.8702 0.892723 12.1097 0.532145 11.2371C0.177382 10.3587 0 9.41539 0 8.40725Z" fill="url(#paint0_linear_15_398)"/>
<path d="M16.125 1.41211H19.2646V8.21092C19.2646 8.85617 19.3284 9.44635 19.4561 9.98144C19.5839 10.5087 19.8003 10.9611 20.1053 11.3388C20.4175 11.7165 20.829 12.0116 21.3399 12.2241C21.8578 12.4287 22.4999 12.531 23.2662 12.531C23.6281 12.531 23.9935 12.4877 24.3624 12.4012C24.7384 12.3146 25.0967 12.1966 25.4373 12.047C25.7779 11.8897 26.0936 11.7047 26.3845 11.4923C26.6825 11.2798 26.9379 11.0477 27.1508 10.7959V1.41211H30.301V15.352H27.1508V14.1599C26.3774 14.6714 25.6005 15.0373 24.82 15.2576C24.0396 15.4779 23.2981 15.5881 22.5957 15.5881C21.4463 15.5881 20.4601 15.4346 19.6371 15.1278C18.8211 14.8209 18.1506 14.3763 17.6256 13.794C17.1077 13.2038 16.7281 12.4838 16.4868 11.6339C16.2456 10.7762 16.125 9.80045 16.125 8.70666V1.41211Z" fill="url(#paint1_linear_15_398)"/>
<path d="M33.5926 11.145C34.4314 11.7019 35.3541 12.1118 36.3607 12.3747C37.3673 12.6377 38.3983 12.7691 39.4538 12.7691C40.1668 12.7691 40.761 12.715 41.2363 12.6067C41.7116 12.4985 42.0926 12.3592 42.3792 12.1891C42.6658 12.019 42.8685 11.8256 42.9873 11.6091C43.1062 11.3925 43.1656 11.1721 43.1656 10.9478C43.1656 10.623 43.0363 10.3446 42.7776 10.1126C42.526 9.88058 42.1066 9.76457 41.5194 9.76457C41.2468 9.76457 40.9532 9.78391 40.6386 9.82257C40.3241 9.86124 39.9921 9.90378 39.6426 9.95018C39.3 9.98885 38.94 10.0275 38.5626 10.0662C38.1921 10.1049 37.8146 10.1242 37.4302 10.1242C36.5914 10.1242 35.8749 10.0237 35.2807 9.82257C34.6935 9.6215 34.2147 9.34695 33.8442 8.99893C33.4738 8.65091 33.2046 8.24102 33.0369 7.76926C32.8691 7.28977 32.7852 6.77547 32.7852 6.22638C32.7852 5.53034 32.932 4.88843 33.2256 4.30067C33.5192 3.7129 33.9386 3.20634 34.4838 2.78098C35.0291 2.34789 35.6861 2.01148 36.4551 1.77173C37.231 1.53198 38.0942 1.41211 39.0449 1.41211C39.5412 1.41211 40.0585 1.44691 40.5967 1.51652C41.1419 1.57839 41.6767 1.66346 42.2009 1.77173C42.7252 1.88 43.2285 2.00761 43.7108 2.15455C44.1931 2.29376 44.6195 2.44457 44.99 2.60698L44.0149 5.27512C43.225 4.9503 42.4351 4.69509 41.6452 4.50948C40.8623 4.31614 40.055 4.21946 39.2231 4.21946C38.643 4.21946 38.1502 4.26973 37.7447 4.37027C37.3463 4.46308 37.0213 4.59069 36.7696 4.75309C36.518 4.90777 36.3327 5.08951 36.2139 5.29832C36.102 5.4994 36.0461 5.71208 36.0461 5.93636C36.0461 6.09877 36.0741 6.24571 36.13 6.37718C36.1929 6.50866 36.2908 6.62466 36.4236 6.7252C36.5634 6.81801 36.7416 6.89148 36.9583 6.94562C37.182 6.99202 37.4546 7.01522 37.7762 7.01522C38.0698 7.01522 38.3808 6.99588 38.7094 6.95722C39.0379 6.91855 39.3804 6.87988 39.7369 6.84121C40.0934 6.79481 40.4604 6.75227 40.8379 6.7136C41.2223 6.67493 41.6138 6.6556 42.0122 6.6556C42.7532 6.6556 43.3997 6.75227 43.952 6.94562C44.5112 7.13896 44.9725 7.40964 45.336 7.75766C45.6995 8.10568 45.9721 8.51557 46.1539 8.98733C46.3356 9.45909 46.4265 9.97338 46.4265 10.5302C46.4265 11.2495 46.2762 11.9184 45.9756 12.5371C45.675 13.1558 45.2277 13.6933 44.6335 14.1496C44.0393 14.5982 43.2984 14.9501 42.4106 15.2053C41.5299 15.4605 40.5093 15.5881 39.349 15.5881C38.636 15.5881 37.9474 15.5378 37.2834 15.4373C36.6193 15.3445 35.9867 15.2169 35.3856 15.0545C34.7844 14.8843 34.2182 14.6871 33.687 14.4628C33.1627 14.2386 32.6839 13.9988 32.2505 13.7436L33.5926 11.145Z" fill="url(#paint2_linear_15_398)"/>
<path d="M51.2913 6.59811H48.3755V4.30952H51.2913V0.526123L54.3197 0.526123V4.30952H57.2355V6.59811H54.3197V16.4741H51.2913V6.59811Z" fill="url(#paint3_linear_15_398)"/>
<path d="M59.1846 8.5001C59.1846 7.51791 59.3487 6.5976 59.6771 5.73915C60.0118 4.8807 60.485 4.13053 61.0966 3.48862C61.7146 2.84672 62.4582 2.34016 63.3273 1.96894C64.2028 1.59772 65.1846 1.41211 66.2726 1.41211C67.3605 1.41211 68.3391 1.59772 69.2082 1.96894C70.0837 2.34016 70.8273 2.84672 71.4389 3.48862C72.0569 4.13053 72.5301 4.8807 72.8584 5.73915C73.1932 6.5976 73.3606 7.51791 73.3606 8.5001C73.3606 9.48229 73.1932 10.4026 72.8584 11.2611C72.5301 12.1195 72.0569 12.8697 71.4389 13.5116C70.8273 14.1535 70.0837 14.66 69.2082 15.0313C68.3391 15.4025 67.3605 15.5881 66.2726 15.5881C65.1846 15.5881 64.2028 15.4025 63.3273 15.0313C62.4582 14.66 61.7146 14.1535 61.0966 13.5116C60.485 12.8697 60.0118 12.1195 59.6771 11.2611C59.3487 10.4026 59.1846 9.48229 59.1846 8.5001ZM62.1878 8.5001C62.1878 9.0492 62.2779 9.57123 62.4582 10.0662C62.6449 10.5534 62.912 10.9865 63.2597 11.3655C63.6138 11.7367 64.0419 12.0344 64.544 12.2587C65.0526 12.4753 65.6288 12.5835 66.2726 12.5835C66.9163 12.5835 67.4893 12.4753 67.9914 12.2587C68.5 12.0344 68.9281 11.7367 69.2758 11.3655C69.6299 10.9865 69.897 10.5534 70.0773 10.0662C70.264 9.57123 70.3573 9.0492 70.3573 8.5001C70.3573 7.951 70.264 7.42898 70.0773 6.93401C69.897 6.43905 69.6299 6.00596 69.2758 5.63474C68.9281 5.25579 68.5 4.95804 67.9914 4.74149C67.4893 4.51721 66.9163 4.40507 66.2726 4.40507C65.6288 4.40507 65.0526 4.51721 64.544 4.74149C64.0419 4.95804 63.6138 5.25579 63.2597 5.63474C62.912 6.00596 62.6449 6.43905 62.4582 6.93401C62.2779 7.42898 62.1878 7.951 62.1878 8.5001Z" fill="url(#paint4_linear_15_398)"/>
<path d="M63.6714 8.5677C63.6714 8.18686 63.735 7.83001 63.8623 7.49714C63.9922 7.16428 64.1756 6.8734 64.4128 6.6245C64.6524 6.37561 64.9407 6.17919 65.2777 6.03525C65.6172 5.89131 65.9979 5.81934 66.4198 5.81934C66.8416 5.81934 67.221 5.89131 67.558 6.03525C67.8975 6.17919 68.1858 6.37561 68.423 6.6245C68.6626 6.8734 68.8461 7.16428 68.9734 7.49714C69.1032 7.83001 69.1681 8.18686 69.1681 8.5677C69.1681 8.94855 69.1032 9.3054 68.9734 9.63826C68.8461 9.97113 68.6626 10.262 68.423 10.5109C68.1858 10.7598 67.8975 10.9562 67.558 11.1002C67.221 11.2441 66.8416 11.3161 66.4198 11.3161C65.9979 11.3161 65.6172 11.2441 65.2777 11.1002C64.9407 10.9562 64.6524 10.7598 64.4128 10.5109C64.1756 10.262 63.9922 9.97113 63.8623 9.63826C63.735 9.3054 63.6714 8.94855 63.6714 8.5677ZM64.8359 8.5677C64.8359 8.78062 64.8708 8.98303 64.9407 9.17495C65.0131 9.36388 65.1167 9.53181 65.2515 9.67875C65.3888 9.82269 65.5548 9.93814 65.7495 10.0251C65.9467 10.1091 66.1701 10.1511 66.4198 10.1511C66.6694 10.1511 66.8915 10.1091 67.0863 10.0251C67.2835 9.93814 67.4495 9.82269 67.5843 9.67875C67.7215 9.53181 67.8251 9.36388 67.895 9.17495C67.9674 8.98303 68.0036 8.78062 68.0036 8.5677C68.0036 8.35479 67.9674 8.15237 67.895 7.96045C67.8251 7.76853 67.7215 7.6006 67.5843 7.45666C67.4495 7.30972 67.2835 7.19427 67.0863 7.1103C66.8915 7.02334 66.6694 6.97986 66.4198 6.97986C66.1701 6.97986 65.9467 7.02334 65.7495 7.1103C65.5548 7.19427 65.3888 7.30972 65.2515 7.45666C65.1167 7.6006 65.0131 7.76853 64.9407 7.96045C64.8708 8.15237 64.8359 8.35479 64.8359 8.5677Z" fill="url(#paint5_linear_15_398)"/>
<path d="M76.6522 11.145C77.491 11.7019 78.4137 12.1118 79.4203 12.3747C80.4268 12.6377 81.4579 12.7691 82.5134 12.7691C83.2264 12.7691 83.8205 12.715 84.2959 12.6067C84.7712 12.4985 85.1522 12.3592 85.4388 12.1891C85.7254 12.019 85.9281 11.8256 86.0469 11.6091C86.1657 11.3925 86.2251 11.1721 86.2251 10.9478C86.2251 10.623 86.0958 10.3446 85.8372 10.1126C85.5855 9.88058 85.1661 9.76457 84.579 9.76457C84.3064 9.76457 84.0128 9.78391 83.6982 9.82257C83.3837 9.86124 83.0516 9.90378 82.7021 9.95018C82.3596 9.98885 81.9996 10.0275 81.6221 10.0662C81.2517 10.1049 80.8742 10.1242 80.4897 10.1242C79.6509 10.1242 78.9344 10.0237 78.3403 9.82257C77.7531 9.6215 77.2743 9.34695 76.9038 8.99893C76.5333 8.65091 76.2642 8.24102 76.0964 7.76926C75.9287 7.28977 75.8448 6.77547 75.8448 6.22638C75.8448 5.53034 75.9916 4.88843 76.2852 4.30067C76.5788 3.7129 76.9982 3.20634 77.5434 2.78098C78.0886 2.34789 78.7457 2.01148 79.5146 1.77173C80.2905 1.53198 81.1538 1.41211 82.1045 1.41211C82.6008 1.41211 83.118 1.44691 83.6563 1.51652C84.2015 1.57839 84.7362 1.66346 85.2605 1.77173C85.7848 1.88 86.2881 2.00761 86.7704 2.15455C87.2527 2.29376 87.6791 2.44457 88.0496 2.60698L87.0744 5.27512C86.2846 4.9503 85.4947 4.69509 84.7048 4.50948C83.9219 4.31614 83.1145 4.21946 82.2827 4.21946C81.7025 4.21946 81.2097 4.26973 80.8043 4.37027C80.4059 4.46308 80.0808 4.59069 79.8292 4.75309C79.5775 4.90777 79.3923 5.08951 79.2735 5.29832C79.1616 5.4994 79.1057 5.71208 79.1057 5.93636C79.1057 6.09877 79.1337 6.24571 79.1896 6.37718C79.2525 6.50866 79.3504 6.62466 79.4832 6.7252C79.623 6.81801 79.8012 6.89148 80.0179 6.94562C80.2416 6.99202 80.5142 7.01522 80.8358 7.01522C81.1293 7.01522 81.4404 6.99588 81.7689 6.95722C82.0975 6.91855 82.44 6.87988 82.7965 6.84121C83.153 6.79481 83.52 6.75227 83.8974 6.7136C84.2819 6.67493 84.6733 6.6556 85.0718 6.6556C85.8127 6.6556 86.4593 6.75227 87.0115 6.94562C87.5707 7.13896 88.0321 7.40964 88.3956 7.75766C88.7591 8.10568 89.0317 8.51557 89.2134 8.98733C89.3952 9.45909 89.486 9.97338 89.486 10.5302C89.486 11.2495 89.3358 11.9184 89.0352 12.5371C88.7346 13.1558 88.2872 13.6933 87.6931 14.1496C87.0989 14.5982 86.358 14.9501 85.4702 15.2053C84.5895 15.4605 83.5689 15.5881 82.4085 15.5881C81.6955 15.5881 81.007 15.5378 80.343 15.4373C79.6789 15.3445 79.0463 15.2169 78.4451 15.0545C77.844 14.8843 77.2778 14.6871 76.7465 14.4628C76.2223 14.2386 75.7434 13.9988 75.3101 13.7436L76.6522 11.145Z" fill="url(#paint6_linear_15_398)"/>
<path d="M95.3974 15.725V13.2379H99.0767C100.009 13.2379 100.824 13.0461 101.523 12.6624C102.222 12.265 102.763 11.71 103.147 10.9975C103.544 10.2849 103.743 9.44217 103.743 8.46925C103.743 7.52374 103.544 6.70156 103.147 6.0027C102.749 5.29014 102.201 4.74202 101.502 4.35833C100.803 3.96095 99.9948 3.76225 99.0767 3.76225H95.3358V1.27515H99.1178C100.187 1.27515 101.173 1.45329 102.078 1.80957C102.996 2.16585 103.791 2.67286 104.462 3.33061C105.147 3.97465 105.675 4.73517 106.045 5.61217C106.428 6.48916 106.62 7.44838 106.62 8.48981C106.62 9.53124 106.428 10.4973 106.045 11.388C105.675 12.265 105.154 13.0324 104.483 13.6901C103.811 14.3342 103.016 14.8343 102.098 15.1906C101.194 15.5469 100.214 15.725 99.1589 15.725H95.3974ZM93.4858 15.725V1.27515H96.2813V15.725H93.4858Z" fill="url(#paint7_linear_15_398)"/>
<path d="M108.293 15.8072V5.87932H111.661V15.8072H108.293ZM109.977 4.27606C109.432 4.27606 108.982 4.13218 108.624 3.84441C108.267 3.54295 108.088 3.17296 108.088 2.73447C108.088 2.30967 108.267 1.94654 108.624 1.64507C108.982 1.3436 109.432 1.19287 109.977 1.19287C110.538 1.19287 110.989 1.3436 111.329 1.64507C111.687 1.94654 111.865 2.30967 111.865 2.73447C111.865 3.17296 111.687 3.54295 111.329 3.84441C110.989 4.13218 110.538 4.27606 109.977 4.27606Z" fill="url(#paint8_linear_15_398)"/>
<path d="M114.067 15.8071V5.51891H116.858V15.8071H114.067ZM116.858 10.1198L115.771 9.39562C115.899 8.13179 116.268 7.13776 116.879 6.41354C117.49 5.67512 118.37 5.30591 119.52 5.30591C120.017 5.30591 120.465 5.39111 120.862 5.56152C121.26 5.71772 121.622 5.98043 121.949 6.34964L120.202 8.35189C120.046 8.18149 119.854 8.05369 119.627 7.96848C119.414 7.88328 119.165 7.84068 118.881 7.84068C118.285 7.84068 117.795 8.03239 117.412 8.4158C117.042 8.78501 116.858 9.35302 116.858 10.1198Z" fill="url(#paint9_linear_15_398)"/>
<path d="M127.545 15.8071C126.467 15.8071 125.51 15.5801 124.673 15.1262C123.836 14.658 123.169 14.0196 122.672 13.211C122.19 12.4023 121.949 11.4802 121.949 10.4446C121.949 9.42314 122.183 8.5152 122.651 7.72075C123.133 6.91211 123.786 6.27371 124.609 5.80555C125.432 5.3232 126.347 5.08203 127.354 5.08203C128.347 5.08203 129.219 5.30902 129.971 5.76299C130.737 6.20278 131.333 6.8128 131.759 7.59307C132.199 8.35914 132.418 9.23162 132.418 10.2105C132.418 10.3949 132.404 10.5864 132.376 10.7851C132.362 10.9695 132.326 11.1823 132.27 11.4235L123.63 11.4447V9.3593L130.971 9.33802L129.844 10.2105C129.815 9.60047 129.702 9.08976 129.503 8.67834C129.319 8.26693 129.042 7.95482 128.673 7.74202C128.319 7.51504 127.879 7.40155 127.354 7.40155C126.801 7.40155 126.318 7.52923 125.907 7.78458C125.495 8.02576 125.176 8.37333 124.949 8.8273C124.736 9.26709 124.63 9.79199 124.63 10.402C124.63 11.0262 124.743 11.5724 124.97 12.0406C125.212 12.4945 125.552 12.8492 125.992 13.1046C126.432 13.3457 126.942 13.4663 127.524 13.4663C128.049 13.4663 128.524 13.3812 128.95 13.211C129.375 13.0265 129.744 12.757 130.056 12.4023L131.695 14.0409C131.198 14.6225 130.588 15.0623 129.865 15.3602C129.156 15.6582 128.382 15.8071 127.545 15.8071Z" fill="url(#paint10_linear_15_398)"/>
<path d="M136.803 6.59811H133.887V4.30952H136.803V0.526123L139.831 0.526123V4.30952H142.747V6.59811H139.831V16.4741H136.803V6.59811Z" fill="url(#paint11_linear_15_398)"/>
<path d="M143.848 16.4741V6.18591H146.638V16.4741H143.848ZM146.638 10.7868L145.552 10.0626C145.68 8.79878 146.049 7.80475 146.659 7.08053C147.27 6.34211 148.15 5.9729 149.301 5.9729C149.798 5.9729 150.245 6.0581 150.643 6.22851C151.04 6.38471 151.402 6.64742 151.729 7.01663L149.982 9.01889C149.826 8.84848 149.634 8.72068 149.407 8.63548C149.194 8.55027 148.946 8.50767 148.662 8.50767C148.065 8.50767 147.575 8.69938 147.192 9.08279C146.823 9.452 146.638 10.02 146.638 10.7868Z" fill="url(#paint12_linear_15_398)"/>
<path d="M153.401 16.4742V6.54631H156.77V16.4742H153.401ZM155.086 4.94305C154.541 4.94305 154.09 4.79917 153.733 4.51141C153.376 4.20994 153.197 3.83996 153.197 3.40146C153.197 2.97666 153.376 2.61353 153.733 2.31206C154.09 2.0106 154.541 1.85986 155.086 1.85986C155.647 1.85986 156.098 2.0106 156.438 2.31206C156.796 2.61353 156.974 2.97666 156.974 3.40146C156.974 3.83996 156.796 4.20994 156.438 4.51141C156.098 4.79917 155.647 4.94305 155.086 4.94305Z" fill="url(#paint13_linear_15_398)"/>
<path d="M158.075 14.8754L163.532 7.77717H166.9L161.443 14.8754H158.075ZM158.075 16.4741V14.8754L160.292 14.0441H166.772V16.4741H158.075ZM158.459 8.6085V6.17847H166.9V7.77717L164.662 8.6085H158.459Z" fill="url(#paint14_linear_15_398)"/>
<defs>
<linearGradient id="paint0_linear_15_398" x1="0" y1="8.5001" x2="14.176" y2="8.5001" gradientUnits="userSpaceOnUse">
<stop stop-color="#19B1D2"/>
<stop offset="1" stop-color="#0094FF"/>
</linearGradient>
<linearGradient id="paint1_linear_15_398" x1="16.125" y1="8.5001" x2="30.301" y2="8.5001" gradientUnits="userSpaceOnUse">
<stop stop-color="#19B1D2"/>
<stop offset="1" stop-color="#0094FF"/>
</linearGradient>
<linearGradient id="paint2_linear_15_398" x1="32.2505" y1="8.5001" x2="46.4265" y2="8.5001" gradientUnits="userSpaceOnUse">
<stop stop-color="#19B1D2"/>
<stop offset="1" stop-color="#0094FF"/>
</linearGradient>
<linearGradient id="paint3_linear_15_398" x1="48.3755" y1="8.50011" x2="57.2355" y2="8.50011" gradientUnits="userSpaceOnUse">
<stop stop-color="#19B1D2"/>
<stop offset="1" stop-color="#0094FF"/>
</linearGradient>
<linearGradient id="paint4_linear_15_398" x1="59.1846" y1="8.5001" x2="73.3606" y2="8.5001" gradientUnits="userSpaceOnUse">
<stop stop-color="#19B1D2"/>
<stop offset="1" stop-color="#0094FF"/>
</linearGradient>
<linearGradient id="paint5_linear_15_398" x1="63.6714" y1="8.5677" x2="69.1681" y2="8.5677" gradientUnits="userSpaceOnUse">
<stop stop-color="#19B1D2"/>
<stop offset="1" stop-color="#0094FF"/>
</linearGradient>
<linearGradient id="paint6_linear_15_398" x1="75.3101" y1="8.5001" x2="89.486" y2="8.5001" gradientUnits="userSpaceOnUse">
<stop stop-color="#19B1D2"/>
<stop offset="1" stop-color="#0094FF"/>
</linearGradient>
<linearGradient id="paint7_linear_15_398" x1="93.4858" y1="8.50009" x2="106.62" y2="8.50009" gradientUnits="userSpaceOnUse">
<stop stop-color="#19B1D2"/>
<stop offset="1" stop-color="#0094FF"/>
</linearGradient>
<linearGradient id="paint8_linear_15_398" x1="108.088" y1="8.50003" x2="111.865" y2="8.50003" gradientUnits="userSpaceOnUse">
<stop stop-color="#19B1D2"/>
<stop offset="1" stop-color="#0094FF"/>
</linearGradient>
<linearGradient id="paint9_linear_15_398" x1="114.067" y1="10.5565" x2="121.949" y2="10.5565" gradientUnits="userSpaceOnUse">
<stop stop-color="#19B1D2"/>
<stop offset="1" stop-color="#0094FF"/>
</linearGradient>
<linearGradient id="paint10_linear_15_398" x1="121.949" y1="10.4446" x2="132.418" y2="10.4446" gradientUnits="userSpaceOnUse">
<stop stop-color="#19B1D2"/>
<stop offset="1" stop-color="#0094FF"/>
</linearGradient>
<linearGradient id="paint11_linear_15_398" x1="133.887" y1="8.50011" x2="142.747" y2="8.50011" gradientUnits="userSpaceOnUse">
<stop stop-color="#19B1D2"/>
<stop offset="1" stop-color="#0094FF"/>
</linearGradient>
<linearGradient id="paint12_linear_15_398" x1="143.848" y1="11.2235" x2="151.729" y2="11.2235" gradientUnits="userSpaceOnUse">
<stop stop-color="#19B1D2"/>
<stop offset="1" stop-color="#0094FF"/>
</linearGradient>
<linearGradient id="paint13_linear_15_398" x1="153.197" y1="9.16702" x2="156.974" y2="9.16702" gradientUnits="userSpaceOnUse">
<stop stop-color="#19B1D2"/>
<stop offset="1" stop-color="#0094FF"/>
</linearGradient>
<linearGradient id="paint14_linear_15_398" x1="158.075" y1="11.3263" x2="166.9" y2="11.3263" gradientUnits="userSpaceOnUse">
<stop stop-color="#19B1D2"/>
<stop offset="1" stop-color="#0094FF"/>
</linearGradient>
</defs>
</svg>
