<svg width="1118" height="90" viewBox="0 0 1118 90" fill="none" xmlns="http://www.w3.org/2000/svg">
<line y1="50.5" x2="453" y2="50.5" stroke="#625B71"/>
<line x1="644" y1="50.5" x2="1118" y2="50.5" stroke="#625B71"/>
<path d="M458.622 34.9357C459.371 32.6324 462.629 32.6324 463.378 34.9357L464.79 39.2832C465.259 40.7253 466.603 41.7016 468.119 41.7016H472.69C475.112 41.7016 476.119 44.8007 474.16 46.2242L470.461 48.9111C469.235 49.8023 468.721 51.3821 469.19 52.8242L470.603 57.1717C471.351 59.475 468.715 61.3903 466.755 59.9668L463.057 57.2799C461.831 56.3886 460.169 56.3886 458.943 57.2799L455.245 59.9668C453.285 61.3903 450.649 59.475 451.397 57.1717L452.81 52.8242C453.279 51.3821 452.765 49.8023 451.539 48.9111L447.84 46.2242C445.881 44.8007 446.888 41.7016 449.31 41.7016H453.881C455.397 41.7016 456.741 40.7253 457.21 39.2832L458.622 34.9357Z" stroke="#605E5E"/>
<path d="M619.622 34.9357C620.371 32.6324 623.629 32.6324 624.378 34.9357L625.79 39.2832C626.259 40.7253 627.603 41.7016 629.119 41.7016H633.69C636.112 41.7016 637.119 44.8007 635.16 46.2242L631.461 48.9111C630.235 49.8023 629.721 51.3821 630.19 52.8242L631.603 57.1717C632.351 59.475 629.715 61.3903 627.755 59.9668L624.057 57.2799C622.831 56.3886 621.169 56.3886 619.943 57.2799L616.245 59.9668C614.285 61.3903 611.649 59.475 612.397 57.1717L613.81 52.8242C614.279 51.3821 613.765 49.8023 612.539 48.9111L608.84 46.2242C606.881 44.8007 607.888 41.7016 610.31 41.7016H614.881C616.397 41.7016 617.741 40.7253 618.21 39.2832L619.622 34.9357Z" stroke="#605E5E"/>
<circle cx="506" cy="48" r="5.5" stroke="#625B71"/>
<circle cx="622" cy="48" r="5.5" stroke="#625B71"/>
<path d="M565.354 48.3536C565.549 48.1583 565.549 47.8417 565.354 47.6464L562.172 44.4645C561.976 44.2692 561.66 44.2692 561.464 44.4645C561.269 44.6597 561.269 44.9763 561.464 45.1716L564.293 48L561.464 50.8284C561.269 51.0237 561.269 51.3403 561.464 51.5355C561.66 51.7308 561.976 51.7308 562.172 51.5355L565.354 48.3536ZM532 48.5H565V47.5H532V48.5Z" fill="#625B71"/>
<rect x="600.5" y="26.5" width="43" height="43" rx="2.5" stroke="#625B71"/>
</svg>
