<svg width="68" height="17" viewBox="0 0 68 17" fill="none" xmlns="http://www.w3.org/2000/svg">
<path d="M4.488 15.928C4.088 15.768 3.632 15.568 3.12 15.328C2.624 15.072 2.192 14.832 1.824 14.608C1.456 14.368 1.272 14.192 1.272 14.08C1.272 13.904 1.32 13.512 1.416 12.904C1.528 12.296 1.584 11.544 1.584 10.648V8.032C1.584 6.704 1.624 5.624 1.704 4.792C1.784 3.944 1.904 3.232 2.064 2.656H1.104L0.024 1.096L0.24 0.663999H4.8C5.072 1.224 5.344 1.912 5.616 2.728C5.904 3.528 6.176 4.392 6.432 5.32C6.688 6.232 6.912 7.112 7.104 7.96C7.392 6.6 7.776 5.296 8.256 4.048C8.736 2.784 9.288 1.656 9.912 0.663999H12.12L13.488 2.584C13.376 2.952 13.288 3.4 13.224 3.928C13.16 4.44 13.128 5.12 13.128 5.968V10.984C13.128 11.704 13.104 12.28 13.056 12.712C13.024 13.128 12.984 13.456 12.936 13.696C12.888 13.936 12.864 14.144 12.864 14.32C12.864 14.432 12.96 14.568 13.152 14.728C13.344 14.888 13.6 15.064 13.92 15.256L13.608 15.928C13.208 15.768 12.752 15.568 12.24 15.328C11.744 15.072 11.312 14.832 10.944 14.608C10.576 14.368 10.392 14.192 10.392 14.08C10.392 13.856 10.44 13.488 10.536 12.976C10.648 12.448 10.704 11.672 10.704 10.648V7C10.704 6.232 10.72 5.52 10.752 4.864C10.8 4.192 10.872 3.6 10.968 3.088C10.616 3.888 10.28 4.816 9.96 5.872C9.64 6.928 9.344 8.016 9.072 9.136C8.816 10.256 8.616 11.328 8.472 12.352L8.064 12.592L6.144 11.536C6.032 10.624 5.872 9.664 5.664 8.656C5.456 7.632 5.224 6.648 4.968 5.704C4.712 4.76 4.456 3.912 4.2 3.16C4.152 3.656 4.112 4.224 4.08 4.864C4.048 5.504 4.024 6.144 4.008 6.784C4.008 7.408 4.008 7.96 4.008 8.44V10.984C4.008 11.704 3.984 12.28 3.936 12.712C3.904 13.128 3.864 13.456 3.816 13.696C3.768 13.936 3.744 14.144 3.744 14.32C3.744 14.432 3.84 14.568 4.032 14.728C4.224 14.888 4.48 15.064 4.8 15.256L4.488 15.928ZM20.3649 15.832C19.9809 15.832 19.5089 15.736 18.9489 15.544C18.3889 15.336 17.8289 15.072 17.2689 14.752C16.7249 14.416 16.2689 14.056 15.9009 13.672C15.5329 13.272 15.3489 12.88 15.3489 12.496C15.3489 12.112 15.3729 11.448 15.4209 10.504C15.4849 9.56 15.5169 8.432 15.5169 7.12C15.5169 5.04 16.6529 4 18.9249 4C19.2769 4 19.6849 4.112 20.1489 4.336C20.6129 4.544 21.0609 4.824 21.4929 5.176C21.9249 5.512 22.2849 5.864 22.5729 6.232C22.8609 6.6 23.0049 6.944 23.0049 7.264V9.232C23.0049 10.528 22.2849 11.176 20.8449 11.176C20.3969 11.176 19.8849 11.152 19.3089 11.104C18.7329 11.04 18.2209 10.968 17.7729 10.888C17.7569 11.416 17.7409 11.896 17.7249 12.328C17.7249 12.744 17.7249 12.984 17.7249 13.048C17.7249 13.304 17.7889 13.488 17.9169 13.6C18.0449 13.712 18.2769 13.768 18.6129 13.768C19.1089 13.768 19.6449 13.696 20.2209 13.552C20.8129 13.392 21.3409 13.16 21.8049 12.856H22.1649L23.4609 14.824C23.1569 15.112 22.7009 15.352 22.0929 15.544C21.5009 15.736 20.9249 15.832 20.3649 15.832ZM17.8449 7.888C17.8449 8.016 17.8369 8.208 17.8209 8.464C17.8209 8.72 17.8209 9.008 17.8209 9.328C18.2849 9.376 18.8209 9.4 19.4289 9.4C19.8929 9.4 20.2129 9.288 20.3889 9.064C20.5809 8.824 20.6769 8.464 20.6769 7.984V6.688C20.6769 6.512 20.6289 6.36 20.5329 6.232C20.4369 6.104 20.2289 6.04 19.9089 6.04C19.2689 6.04 18.7649 6.176 18.3969 6.448C18.0289 6.704 17.8449 7.184 17.8449 7.888ZM29.0423 15.808C28.8023 15.808 28.4743 15.72 28.0583 15.544C27.6423 15.352 27.2183 15.112 26.7863 14.824C26.3543 14.52 25.9863 14.208 25.6823 13.888C25.3783 13.552 25.2263 13.232 25.2263 12.928C25.2263 12.752 25.2343 12.568 25.2503 12.376C25.2663 12.184 25.2903 11.936 25.3223 11.632C25.3543 11.312 25.3783 10.888 25.3943 10.36C25.4103 9.832 25.4183 9.144 25.4183 8.296C25.4183 7.976 25.4183 7.64 25.4183 7.288C25.4183 6.936 25.4103 6.568 25.3943 6.184H24.9623L23.7382 4.576L23.9062 4.192C24.7543 4.096 25.2903 3.84 25.5143 3.424C25.7383 3.008 25.8503 2.376 25.8503 1.528L26.2583 1.384L27.7223 2.488C27.7223 2.776 27.7223 3.056 27.7223 3.328C27.7223 3.6 27.7223 3.872 27.7223 4.144H29.7623L30.9622 5.824L30.7943 6.184H27.7463C27.7463 6.76 27.7463 7.312 27.7463 7.84C27.7463 8.368 27.7463 8.872 27.7463 9.352C27.7463 10.28 27.7303 10.992 27.6983 11.488C27.6823 11.984 27.6583 12.352 27.6263 12.592C27.5943 12.832 27.5783 13.056 27.5783 13.264C27.5783 13.584 27.7463 13.744 28.0823 13.744C28.3703 13.744 28.6823 13.672 29.0183 13.528C29.3543 13.368 29.6663 13.176 29.9543 12.952H30.2903L31.4183 14.824C31.1943 15.096 30.8423 15.328 30.3623 15.52C29.8823 15.712 29.4423 15.808 29.0423 15.808ZM36.6399 16.216C35.2639 15.768 34.2719 15.384 33.6639 15.064C33.0559 14.728 32.7519 14.488 32.7519 14.344C32.7519 14.168 32.7759 13.864 32.8239 13.432C32.8879 13 32.9199 12.328 32.9199 11.416V8.44C32.9199 8.12 32.9359 7.744 32.9679 7.312C32.9999 6.864 33.0479 6.488 33.1119 6.184H32.2239L30.9759 4.528L31.1439 4.144H33.3999C33.4799 4.144 33.6239 4.264 33.8319 4.504C34.0559 4.728 34.2799 4.976 34.5039 5.248C34.7599 4.832 35.1119 4.528 35.5599 4.336C36.0239 4.144 36.5119 4.048 37.0239 4.048C37.2799 4.048 37.4719 4.064 37.5999 4.096L38.7999 5.776L38.6079 6.064C37.4879 6.048 36.6559 6.264 36.1119 6.712C35.5679 7.16 35.2959 7.984 35.2959 9.184V11.752C35.2959 12.552 35.2719 13.176 35.2239 13.624C35.1919 14.056 35.1759 14.344 35.1759 14.488C35.1759 14.584 35.2079 14.672 35.2719 14.752C35.3359 14.816 35.4879 14.896 35.7279 14.992C35.9839 15.088 36.3839 15.248 36.9279 15.472L36.6399 16.216ZM46.2195 15.664C45.4995 15.664 44.7955 15.608 44.1075 15.496C43.4195 15.384 42.8035 15.248 42.2595 15.088C41.7315 14.928 41.3075 14.76 40.9875 14.584C40.6675 14.408 40.5075 14.248 40.5075 14.104C40.5075 13.704 40.5555 13.144 40.6515 12.424C40.7635 11.704 40.8195 10.712 40.8195 9.448V6.784C40.8195 5.728 40.8595 4.872 40.9395 4.216C41.0355 3.544 41.1315 3.024 41.2275 2.656H40.4115L39.2115 1.048L39.4035 0.663999H41.3235C42.0755 0.663999 42.6755 0.647999 43.1235 0.615999C43.5875 0.584 44.0515 0.568 44.5155 0.568C44.9315 0.568 45.3875 0.696 45.8835 0.951999C46.3795 1.208 46.8515 1.536 47.2995 1.936C47.7635 2.336 48.1395 2.752 48.4275 3.184C48.7315 3.6 48.8835 3.968 48.8835 4.288V5.368C48.8835 6.104 48.7635 6.76 48.5235 7.336C48.2995 7.912 47.9635 8.36 47.5155 8.68C48.1395 9.144 48.5955 9.632 48.8835 10.144C49.1875 10.64 49.3395 11.2 49.3395 11.824V12.304C49.3395 13.424 49.0595 14.264 48.4995 14.824C47.9555 15.384 47.1955 15.664 46.2195 15.664ZM45.5235 2.656C45.2355 2.656 44.9315 2.672 44.6115 2.704C44.3075 2.72 43.9955 2.752 43.6755 2.8C43.5635 3.232 43.4595 3.768 43.3635 4.408C43.2835 5.032 43.2435 5.768 43.2435 6.616V7.072H44.7075C45.0595 7.072 45.3715 7.024 45.6435 6.928C45.9155 6.816 46.1235 6.6 46.2675 6.28C46.4275 5.96 46.5075 5.48 46.5075 4.84V3.88C46.5075 3.4 46.4355 3.08 46.2915 2.92C46.1475 2.744 45.8915 2.656 45.5235 2.656ZM43.2435 10.528C43.2435 11.184 43.2275 11.76 43.1955 12.256C43.1635 12.736 43.1235 13.176 43.0755 13.576C43.4755 13.672 43.8675 13.72 44.2515 13.72C45.2275 13.72 45.8995 13.504 46.2675 13.072C46.6515 12.64 46.8435 12.072 46.8435 11.368V10.984C46.8435 10.12 46.6675 9.576 46.3155 9.352C45.9635 9.112 45.4915 8.992 44.8995 8.992H43.2435V10.528ZM55.7499 15.88C55.3659 15.88 54.9019 15.784 54.3579 15.592C53.8139 15.4 53.2859 15.144 52.7739 14.824C52.2619 14.504 51.8299 14.136 51.4779 13.72C51.1419 13.304 50.9739 12.88 50.9739 12.448C50.9739 12.256 50.9979 11.696 51.0459 10.768C51.1099 9.84 51.1419 8.68 51.1419 7.288C51.1419 6.168 51.4699 5.344 52.1259 4.816C52.7819 4.288 53.7659 4.024 55.0779 4.024C55.4619 4.024 55.8859 4.144 56.3499 4.384C56.8299 4.624 57.2859 4.936 57.7179 5.32C58.1499 5.704 58.5019 6.112 58.7739 6.544C59.0619 6.96 59.2059 7.352 59.2059 7.72C59.2059 8.328 59.1899 8.984 59.1579 9.688C59.1419 10.392 59.1339 11.296 59.1339 12.4C59.1339 13.424 58.8539 14.264 58.2939 14.92C57.7339 15.56 56.8859 15.88 55.7499 15.88ZM54.2139 13.84C55.0939 13.84 55.7339 13.656 56.1339 13.288C56.5499 12.92 56.7579 12.376 56.7579 11.656C56.7579 11.144 56.7659 10.568 56.7819 9.928C56.7979 9.272 56.8139 8.672 56.8299 8.128C56.8459 7.568 56.8539 7.176 56.8539 6.952C56.8539 6.68 56.8059 6.48 56.7099 6.352C56.6139 6.208 56.4219 6.136 56.1339 6.136C55.2699 6.136 54.6059 6.288 54.1419 6.592C53.6939 6.88 53.4699 7.432 53.4699 8.248C53.4699 9.784 53.4539 10.944 53.4219 11.728C53.3899 12.496 53.3739 13.016 53.3739 13.288C53.3739 13.656 53.6539 13.84 54.2139 13.84ZM65.2298 15.808C64.9898 15.808 64.6618 15.72 64.2458 15.544C63.8298 15.352 63.4058 15.112 62.9738 14.824C62.5418 14.52 62.1738 14.208 61.8698 13.888C61.5658 13.552 61.4138 13.232 61.4138 12.928C61.4138 12.752 61.4218 12.568 61.4378 12.376C61.4538 12.184 61.4778 11.936 61.5098 11.632C61.5418 11.312 61.5658 10.888 61.5818 10.36C61.5978 9.832 61.6058 9.144 61.6058 8.296C61.6058 7.976 61.6058 7.64 61.6058 7.288C61.6058 6.936 61.5978 6.568 61.5818 6.184H61.1498L59.9257 4.576L60.0938 4.192C60.9418 4.096 61.4778 3.84 61.7018 3.424C61.9258 3.008 62.0378 2.376 62.0378 1.528L62.4458 1.384L63.9098 2.488C63.9098 2.776 63.9098 3.056 63.9098 3.328C63.9098 3.6 63.9098 3.872 63.9098 4.144H65.9498L67.1497 5.824L66.9818 6.184H63.9338C63.9338 6.76 63.9338 7.312 63.9338 7.84C63.9338 8.368 63.9338 8.872 63.9338 9.352C63.9338 10.28 63.9178 10.992 63.8858 11.488C63.8698 11.984 63.8458 12.352 63.8138 12.592C63.7818 12.832 63.7658 13.056 63.7658 13.264C63.7658 13.584 63.9338 13.744 64.2698 13.744C64.5578 13.744 64.8698 13.672 65.2058 13.528C65.5418 13.368 65.8538 13.176 66.1418 12.952H66.4778L67.6058 14.824C67.3818 15.096 67.0298 15.328 66.5498 15.52C66.0698 15.712 65.6298 15.808 65.2298 15.808Z" fill="url(#paint0_linear_25_73)"/>
<defs>
<linearGradient id="paint0_linear_25_73" x1="0" y1="7" x2="457" y2="7" gradientUnits="userSpaceOnUse">
<stop stop-color="#7232E8"/>
<stop offset="1" stop-color="#EF4F7F"/>
</linearGradient>
</defs>
</svg>
